<svg width="100" height="100" viewBox="0 0 100 100" fill="none" xmlns="http://www.w3.org/2000/svg">
<g clip-path="url(#clip0_237_157)">
<path fill-rule="evenodd" clip-rule="evenodd" d="M62.549 24.0106C68.723 24.0001 69.08 24.0106 69.479 24.1993C69.71 24.3041 70.088 24.5977 70.319 24.8598C70.55 25.1219 70.802 25.5098 70.865 25.7404C70.9595 26.0445 71.0015 27.5646 71.0015 31.5485C71.0015 35.4485 70.9595 37.063 70.8755 37.367C70.7915 37.6187 70.5395 37.9961 70.214 38.3106C69.899 38.6356 69.521 38.8872 69.269 38.9711C68.996 39.0445 68.03 39.0969 64.2815 39.0969L64.25 37.9541C64.229 37.0001 64.1975 36.759 64.019 36.5178C63.9035 36.3711 63.6725 36.1404 63.515 36.0146C63.284 35.8469 63.0635 35.7945 62.6015 35.7945C62.15 35.7945 61.9085 35.8469 61.6985 36.0041C61.5515 36.1195 61.3205 36.3501 61.1945 36.5074C61.0055 36.759 60.974 36.9687 60.9215 39.0969H54.2015V34.9033L53.6975 34.8404C53.4245 34.809 52.994 34.6727 52.7315 34.5364C52.469 34.4106 52.112 34.1799 51.944 34.0437C51.7655 33.8969 51.461 33.4775 51.2615 33.1106C50.9255 32.492 50.894 32.3662 50.9045 31.5485C50.9045 30.8251 50.957 30.563 51.1565 30.1332C51.3035 29.8501 51.608 29.4203 51.839 29.1896C52.07 28.959 52.469 28.6654 52.7315 28.5396C52.994 28.4243 53.4245 28.288 54.2015 28.1937V27.1767C54.2015 26.6106 54.2645 25.9606 54.338 25.7404C54.401 25.5098 54.653 25.1219 54.884 24.8703C55.115 24.6291 55.472 24.3356 55.6715 24.2203C56.0285 24.0211 56.2805 24.0106 62.549 24.0106ZM56.144 25.9396C55.892 26.1912 55.892 26.2332 55.8815 28.0364V29.8711C53.7815 29.9235 53.54 29.9549 53.2985 30.1332C53.1515 30.2485 52.9205 30.4791 52.7945 30.6364C52.6265 30.867 52.574 31.0872 52.574 31.5485C52.574 31.9993 52.6265 32.2404 52.784 32.4501C52.8995 32.5969 53.1305 32.8275 53.288 32.9533C53.54 33.142 53.75 33.1735 54.737 33.2049L55.8815 33.2259V37.4195H59.2415C59.336 36.6437 59.4725 36.2138 59.588 35.9517C59.714 35.6896 60.008 35.2912 60.239 35.0606C60.47 34.8299 60.89 34.5259 61.184 34.3791C61.6145 34.1695 61.877 34.1275 62.6015 34.1275C63.3575 34.1275 63.578 34.1695 64.019 34.4001C64.3025 34.5469 64.6805 34.788 64.859 34.9243C65.027 35.0711 65.321 35.4695 65.51 35.8049C65.6885 36.1404 65.867 36.6437 65.8985 36.9267L65.9615 37.4195C68.765 37.4195 68.8175 37.409 69.059 37.1574L69.3215 36.8953V26.2017L68.7965 25.6775H56.396L56.144 25.9396ZM47.4815 29.0324V36.5808L46.337 36.6122C45.3815 36.6332 45.14 36.6751 44.8985 36.8428C44.7515 36.9582 44.5205 37.1888 44.3945 37.3566C44.2265 37.5767 44.174 37.7969 44.174 38.2582C44.174 38.7299 44.2265 38.9501 44.3945 39.1703C44.5205 39.338 44.7515 39.5582 44.8985 39.6735C45.14 39.8517 45.3815 39.8937 47.4815 39.9356V44.1291H50.8415L50.9045 43.6364C50.936 43.3638 51.0725 42.9235 51.188 42.6614C51.314 42.4098 51.608 42.0009 51.839 41.7703C52.07 41.5396 52.5005 41.2356 52.784 41.0993C53.2145 40.8896 53.477 40.8372 54.2015 40.8372C54.9575 40.8372 55.178 40.8791 55.619 41.1098C55.913 41.2566 56.291 41.4977 56.459 41.6445C56.6375 41.7808 56.921 42.1791 57.11 42.5251C57.2885 42.8606 57.467 43.3638 57.5615 44.1291H62.654L62.5805 45.6808C62.5385 46.5719 62.423 47.6937 62.2865 48.3227C62.1605 48.9308 61.9295 49.8533 61.7615 50.367C61.5935 50.8912 61.184 51.8558 60.848 52.5267C60.512 53.1872 59.9555 54.1308 59.609 54.6235C59.2625 55.1058 58.454 56.0283 57.824 56.6574C57.1835 57.2969 55.9235 58.4082 53.372 60.4316L53.351 62.738L53.687 62.8953C53.876 62.9896 54.2015 63.2517 54.401 63.4824C54.611 63.7235 54.842 64.1009 54.905 64.3211C54.9785 64.5517 55.0415 64.8977 55.0415 65.0969C55.0415 65.3066 54.9785 65.6525 54.905 65.8832C54.842 66.1033 54.611 66.4808 54.401 66.7219C54.191 66.9525 53.834 67.2356 53.5925 67.3509C53.2145 67.5396 53.1725 67.592 53.267 67.8017C53.3195 67.9275 53.3615 68.2106 53.3615 68.4308C53.3615 68.6509 53.2985 69.0074 53.225 69.2275C53.162 69.4582 52.931 69.8251 52.7315 70.0558C52.532 70.2864 52.1855 70.5695 51.9755 70.6743C51.692 70.8106 51.5765 70.9364 51.5765 71.1041C51.5765 71.2299 51.482 71.6179 51.3665 71.9638C51.251 72.3098 50.9675 72.9074 50.726 73.2743C50.4845 73.6517 50.0645 74.1759 49.7915 74.4275C49.5185 74.6896 49.067 75.0356 48.7835 75.1824C48.5 75.3396 47.912 75.5912 47.4815 75.738C46.883 75.9477 46.484 76.0106 45.8015 76.0106C45.14 76.0106 44.72 75.9477 44.174 75.759C43.775 75.6227 43.271 75.4235 43.0715 75.3187C42.872 75.2138 42.473 74.9622 42.2 74.7525C41.927 74.5533 41.4965 74.1235 41.2445 73.7985C40.9925 73.484 40.709 73.0646 40.604 72.8549C40.499 72.6558 40.331 72.2364 40.2155 71.9114C40.1105 71.5969 40.0265 71.2299 40.0265 71.1041C40.0265 70.9364 39.911 70.8106 39.638 70.6743C39.4175 70.5695 39.071 70.2864 38.8715 70.0558C38.672 69.8251 38.4515 69.4582 38.378 69.2275C38.3045 69.0074 38.2415 68.6509 38.2415 68.4308C38.2415 68.2106 38.2835 67.9275 38.336 67.8017C38.4305 67.592 38.3885 67.5396 38.0105 67.3509C37.769 67.2356 37.412 66.9525 37.202 66.7219C36.992 66.4808 36.7715 66.1033 36.698 65.8832C36.6245 65.6525 36.5615 65.3066 36.5615 65.0969C36.5615 64.8977 36.6245 64.5517 36.698 64.3211C36.7715 64.1009 36.992 63.7235 37.202 63.4824C37.412 63.2517 37.727 62.9896 38.252 62.738L38.231 60.4316L36.2255 58.8066C35.1335 57.9154 33.863 56.8041 33.422 56.3324C32.981 55.8606 32.3405 55.0848 31.994 54.6025C31.6475 54.1203 31.091 53.1872 30.755 52.5267C30.419 51.8558 29.9885 50.7969 29.789 50.1574C29.5895 49.5283 29.348 48.5848 29.243 48.0606C29.1065 47.3687 29.0645 46.6138 29.0645 45.1775C29.075 43.584 29.117 43.0493 29.306 42.1372C29.432 41.5396 29.684 40.617 29.852 40.0928C30.0305 39.5791 30.356 38.7509 30.587 38.2582C30.818 37.7759 31.3115 36.9267 31.6685 36.3711C32.036 35.8259 32.645 35.0187 33.0335 34.5679C33.4115 34.117 34.094 33.4461 34.5455 33.0582C34.9865 32.6808 35.69 32.1461 36.089 31.8735C36.4985 31.6009 37.181 31.1816 37.6115 30.9404C38.042 30.7098 38.8505 30.3428 39.3965 30.1332C39.9425 29.9235 40.8665 29.6404 41.444 29.5041C42.0215 29.3574 42.851 29.2106 43.2815 29.1582C43.712 29.1058 44.8355 29.0533 47.4815 29.0324ZM41.8115 31.1291C41.381 31.2445 40.667 31.4541 40.2365 31.6114C39.806 31.7687 39.1235 32.0622 38.714 32.2614C38.315 32.4606 37.58 32.8904 37.0865 33.2154C36.5615 33.5614 35.7005 34.2953 34.9865 35.0082C34.283 35.7211 33.5375 36.5912 33.191 37.1049C32.8655 37.5977 32.435 38.3316 32.2355 38.7299C32.0255 39.1388 31.742 39.8203 31.5845 40.2501C31.427 40.6904 31.2065 41.3928 31.1015 41.8227C30.9965 42.263 30.86 42.9549 30.818 43.3743L30.734 44.1291H35.7215C35.816 43.3638 35.9525 42.9235 36.068 42.6614C36.194 42.4098 36.488 42.0009 36.719 41.7703C36.95 41.5396 37.3805 41.2356 37.664 41.0993C38.0945 40.8896 38.357 40.8372 39.0815 40.8372C39.8375 40.8372 40.058 40.8791 40.499 41.1098C40.793 41.2566 41.171 41.4977 41.339 41.6445C41.5175 41.7808 41.801 42.1791 41.99 42.5251C42.1685 42.8606 42.347 43.3638 42.3785 43.6364L42.4415 44.1291H45.8015V41.613C45.0245 41.5187 44.531 41.3404 44.1845 41.1622C43.8485 40.984 43.4495 40.6904 43.3025 40.5122C43.166 40.3445 42.9245 39.967 42.7775 39.6735C42.5465 39.2332 42.5045 39.013 42.5045 38.2582C42.5045 37.5348 42.557 37.2727 42.7565 36.8428C42.9035 36.5598 43.208 36.1299 43.439 35.8993C43.67 35.6687 44.069 35.3751 44.3315 35.2598C44.594 35.134 45.0245 35.0082 45.308 34.9767L45.8015 34.9033V30.7098C44.4575 30.7308 43.7435 30.7832 43.334 30.8356C42.935 30.888 42.242 31.0243 41.8115 31.1291ZM37.811 42.9864C37.706 43.1227 37.58 43.3743 37.517 43.5316C37.454 43.6888 37.4015 44.2654 37.4015 44.8106V45.8066H30.6815C30.776 46.9074 30.8915 47.6517 30.9965 48.1654C31.1015 48.6896 31.3115 49.4864 31.469 49.9477C31.6265 50.409 31.952 51.1638 32.1725 51.6251C32.4035 52.0864 32.8655 52.8727 33.191 53.3549C33.5165 53.8477 34.178 54.6654 34.6715 55.1791C35.165 55.6929 36.5405 56.909 37.748 57.884L39.9215 59.6453V62.5808H45.8015V55.8711C45.0245 55.7767 44.594 55.6404 44.3315 55.5146C44.069 55.3783 43.7225 55.1582 43.544 55.0114C43.376 54.8751 43.061 54.4558 42.8615 54.0783C42.5255 53.4598 42.494 53.3445 42.5045 52.5162C42.5045 51.7929 42.557 51.5308 42.7565 51.1009C42.9035 50.8179 43.208 50.388 43.439 50.1574C43.67 49.9267 44.069 49.6332 44.3315 49.5178C44.594 49.392 45.0245 49.2662 45.308 49.2348L45.8015 49.1614V45.8066H40.7615C40.709 43.6888 40.6775 43.4791 40.4885 43.2275C40.3625 43.0598 40.1525 42.8396 40.016 42.7348C39.8795 42.6299 39.533 42.5251 39.239 42.5041C38.945 42.4727 38.5565 42.5146 38.3465 42.588C38.147 42.6719 37.9055 42.8396 37.811 42.9864ZM52.931 42.9864C52.826 43.1227 52.7 43.3743 52.637 43.5316C52.574 43.6888 52.5215 44.2654 52.5215 44.8106V45.8066H47.4815V50.8388C45.3815 50.8912 45.14 50.9332 44.8985 51.1009C44.7515 51.2162 44.5205 51.4469 44.3945 51.6146C44.2265 51.8348 44.174 52.0549 44.174 52.5162C44.174 52.988 44.2265 53.2082 44.3945 53.4283C44.5205 53.5961 44.7515 53.8162 44.8985 53.9316C45.14 54.1098 45.3815 54.1517 46.337 54.1727L47.4815 54.1937V62.5808H51.6815V59.6453C55.0625 56.909 56.438 55.6929 56.9315 55.1791C57.425 54.6654 58.097 53.8477 58.4225 53.3549C58.748 52.8727 59.231 52.0235 59.483 51.4679C59.7455 50.9227 60.0605 50.1679 60.1865 49.7904C60.3125 49.4235 60.5015 48.6896 60.6065 48.1654C60.7115 47.6517 60.827 46.9074 60.8585 46.5195L60.9215 45.8066H55.8815C55.829 43.6888 55.7975 43.4791 55.6085 43.2275C55.4825 43.0598 55.2725 42.8396 55.136 42.7348C54.9995 42.6299 54.653 42.5251 54.359 42.5041C54.065 42.4727 53.6765 42.5146 53.4665 42.588C53.267 42.6719 53.0255 42.8396 52.931 42.9864ZM38.504 64.5203C38.357 64.6775 38.252 64.9082 38.252 65.0969C38.2415 65.3066 38.336 65.5058 38.504 65.6735L38.7665 65.9356H52.847C53.267 65.5162 53.3615 65.2961 53.3615 65.0969C53.3615 64.9082 53.267 64.688 53.099 64.5203L52.8365 64.2582H38.756L38.504 64.5203ZM40.184 67.8751C40.037 68.0324 39.932 68.263 39.932 68.4517C39.9215 68.6614 40.016 68.8711 40.184 69.0388L40.4465 69.3009H51.167C51.587 68.8816 51.6815 68.6509 51.6815 68.4622C51.6815 68.263 51.587 68.0429 51.419 67.8856L51.1565 67.6235H40.436L40.184 67.8751ZM42.0635 71.9638C42.2945 72.4356 42.6095 72.8654 42.935 73.159C43.208 73.4106 43.754 73.767 44.1215 73.9453C44.741 74.2388 44.909 74.2703 45.8015 74.2703C46.694 74.2703 46.8725 74.2388 47.4815 73.9558C47.8595 73.7775 48.395 73.4211 48.6785 73.1695C48.9935 72.8759 49.319 72.4251 49.5395 71.9638C49.739 71.5654 49.907 71.1775 49.907 71.1041C49.8965 70.9993 49.004 70.9679 45.8015 70.9679C42.599 70.9679 41.7065 70.9993 41.7065 71.1041C41.7065 71.1775 41.864 71.5654 42.0635 71.9638Z" fill="#385981"/>
</g>
<rect x="1" y="1" width="98" height="98" rx="49" stroke="#A6B5CA" stroke-width="2"/>
<defs>
<clipPath id="clip0_237_157">
<rect width="42" height="52" fill="white" transform="translate(29 24)"/>
</clipPath>
</defs>
</svg>
