<svg width="100" height="100" viewBox="0 0 100 100" fill="none" xmlns="http://www.w3.org/2000/svg">
<path d="M44.9365 60.8333H55.0613M50 30.5V32.6667M63.7887 36.2113L62.2568 37.7432M69.5 50H67.3333M32.6667 50H30.5M37.7432 37.7432L36.2113 36.2113M42.3387 57.6613C40.8239 56.1462 39.7924 54.2158 39.3746 52.1144C38.9568 50.0131 39.1715 47.835 39.9916 45.8556C40.8116 43.8763 42.2001 42.1845 43.9816 40.9942C45.7631 39.804 47.8575 39.1687 50 39.1687C52.1425 39.1687 54.2369 39.804 56.0184 40.9942C57.7999 42.1845 59.1884 43.8763 60.0084 45.8556C60.8285 47.835 61.0432 50.0131 60.6254 52.1144C60.2076 54.2158 59.1761 56.1462 57.6613 57.6613L56.474 58.8465C55.7952 59.5254 55.2568 60.3314 54.8895 61.2184C54.5222 62.1054 54.3332 63.0561 54.3333 64.0162V65.1667C54.3333 66.3159 53.8768 67.4181 53.0641 68.2308C52.2515 69.0435 51.1493 69.5 50 69.5C48.8507 69.5 47.7485 69.0435 46.9359 68.2308C46.1232 67.4181 45.6667 66.3159 45.6667 65.1667V64.0162C45.6667 62.077 44.8953 60.2158 43.526 58.8465L42.3387 57.6613Z" stroke="#385981" stroke-width="2" stroke-linecap="round" stroke-linejoin="round"/>
<rect x="1" y="1" width="98" height="98" rx="49" stroke="#A6B5CA" stroke-width="2"/>
</svg>
