<svg width="328" height="80" viewBox="0 0 328 80" fill="none" xmlns="http://www.w3.org/2000/svg">
<g clip-path="url(#clip0_447_3048)">
<path d="M53.176 54.608L52.7124 55.4941L52.7205 55.4982L53.176 54.608ZM46.792 48.512L47.6596 48.0147L46.792 48.512ZM46.792 29.984L47.6596 30.4813L47.6622 30.4767L46.792 29.984ZM53.176 23.888L53.6315 24.7783L53.6396 24.774L53.176 23.888ZM74.296 24.896H75.296V24.3669L74.8585 24.0692L74.296 24.896ZM74.296 31.808L73.6524 32.5734L75.296 33.9555V31.808H74.296ZM69.448 29.264L69.1575 30.2209L69.1676 30.2239L69.1777 30.2268L69.448 29.264ZM55 31.376L55.6897 32.1001L55.6899 32.0999L55 31.376ZM55.048 47.216L54.358 47.9399L54.3641 47.9455L55.048 47.216ZM69.592 49.28L69.8778 50.2383L69.8855 50.236L69.8931 50.2336L69.592 49.28ZM74.68 46.544H75.68V44.47L74.0573 45.7616L74.68 46.544ZM74.68 53.456L75.2744 54.2602L75.68 53.9604V53.456H74.68ZM62.68 55.72C59.2291 55.72 56.2216 55.0429 53.6315 53.7178L52.7205 55.4982C55.6344 56.9891 58.9629 57.72 62.68 57.72V55.72ZM53.6396 53.722C51.0518 52.3679 49.0661 50.4686 47.6596 48.0147L45.9244 49.0093C47.5259 51.8034 49.7962 53.9681 52.7124 55.494L53.6396 53.722ZM47.6596 48.0147C46.2564 45.5666 45.536 42.6562 45.536 39.248H43.536C43.536 42.9438 44.3196 46.2094 45.9244 49.0093L47.6596 48.0147ZM45.536 39.248C45.536 35.8398 46.2564 32.9294 47.6596 30.4813L45.9244 29.4867C44.3196 32.2866 43.536 35.5522 43.536 39.248H45.536ZM47.6622 30.4767C49.0685 27.9933 51.0512 26.0984 53.6315 24.7782L52.7205 22.9978C49.7968 24.4936 47.5235 26.6627 45.9218 29.4912L47.6622 30.4767ZM53.6396 24.774C56.2279 23.4197 59.2325 22.728 62.68 22.728V20.728C58.9595 20.728 55.6281 21.4763 52.7124 23.002L53.6396 24.774ZM62.68 22.728C67.167 22.728 70.8308 23.7478 73.7335 25.7228L74.8585 24.0692C71.5532 21.8202 67.473 20.728 62.68 20.728V22.728ZM73.296 24.896V31.808H75.296V24.896H73.296ZM74.9396 31.0426C73.4193 29.7642 71.6751 28.8505 69.7183 28.3012L69.1777 30.2268C70.8689 30.7015 72.3567 31.4838 73.6524 32.5734L74.9396 31.0426ZM69.7385 28.3071C67.8336 27.7288 65.6847 27.448 63.304 27.448V29.448C65.5313 29.448 67.4784 29.7112 69.1575 30.2209L69.7385 28.3071ZM63.304 27.448C59.6221 27.448 56.5851 28.4837 54.3101 30.6521L55.6899 32.0999C57.5109 30.3643 60.0099 29.448 63.304 29.448V27.448ZM54.3103 30.6519C52.0579 32.797 50.976 35.7041 50.976 39.248H52.976C52.976 36.1359 53.9101 33.795 55.6897 32.1001L54.3103 30.6519ZM50.976 39.248C50.976 42.826 52.0752 45.764 54.3581 47.9399L55.7379 46.4921C53.9248 44.764 52.976 42.39 52.976 39.248H50.976ZM54.3641 47.9455C56.638 50.0774 59.6557 51.096 63.304 51.096V49.096C60.0403 49.096 57.554 48.1946 55.7319 46.4865L54.3641 47.9455ZM63.304 51.096C65.7462 51.096 67.9417 50.8157 69.8778 50.2383L69.3062 48.3217C67.5943 48.8323 65.5978 49.096 63.304 49.096V51.096ZM69.8931 50.2336C71.8394 49.619 73.6436 48.647 75.3027 47.3264L74.0573 45.7616C72.5804 46.937 70.9926 47.789 69.2909 48.3264L69.8931 50.2336ZM73.68 46.544V53.456H75.68V46.544H73.68ZM74.0856 52.6518C71.3684 54.6602 67.6019 55.72 62.68 55.72V57.72C67.8701 57.72 72.1036 56.6038 75.2744 54.2602L74.0856 52.6518ZM87.9265 55.232L87.4848 56.1292L87.4931 56.1332L87.5014 56.1371L87.9265 55.232ZM83.0785 50.96L82.2223 51.4767L82.2276 51.4854L82.233 51.494L83.0785 50.96ZM83.0785 38.096L82.2288 37.5686L82.2223 37.5793L83.0785 38.096ZM87.9265 33.776L87.4902 32.8762L87.4848 32.8788L87.9265 33.776ZM102.519 33.776L102.077 34.6732L102.082 34.6758L102.519 33.776ZM107.367 38.096L106.51 38.6127L106.517 38.6234L107.367 38.096ZM107.367 50.96L106.517 50.4326L106.514 50.4367L107.367 50.96ZM102.567 55.232L102.997 56.1347L103.008 56.1292L102.567 55.232ZM99.9265 49.28L100.643 49.9774L100.652 49.9677L99.9265 49.28ZM99.9265 39.68L99.2 40.3672L99.2096 40.3773L99.2194 40.3871L99.9265 39.68ZM90.5665 39.68L91.2737 40.3872L91.2832 40.3774L90.5665 39.68ZM90.5665 49.28L89.8405 49.9677L89.8498 49.9776L89.8594 49.9871L90.5665 49.28ZM95.2705 55.72C92.6054 55.72 90.3074 55.2455 88.3516 54.3269L87.5014 56.1371C89.7696 57.2025 92.3676 57.72 95.2705 57.72V55.72ZM88.3682 54.3348C86.4409 53.386 84.9701 52.0823 83.924 50.426L82.233 51.494C83.4909 53.4857 85.2521 55.03 87.4848 56.1292L88.3682 54.3348ZM83.9347 50.4433C82.9211 48.7637 82.3985 46.7873 82.3985 44.48H80.3985C80.3985 47.1007 80.9959 49.4443 82.2223 51.4767L83.9347 50.4433ZM82.3985 44.48C82.3985 42.242 82.9186 40.2964 83.9347 38.6127L82.2223 37.5793C80.9984 39.6076 80.3985 41.918 80.3985 44.48H82.3985ZM83.9281 38.6234C84.9753 36.9363 86.4453 35.6198 88.3682 34.6732L87.4848 32.8788C85.2477 33.9802 83.4857 35.5437 82.2289 37.5686L83.9281 38.6234ZM88.3628 34.6758C90.3158 33.7289 92.6097 33.24 95.2705 33.24V31.24C92.3633 31.24 89.7612 31.7751 87.4902 32.8762L88.3628 34.6758ZM95.2705 33.24C97.8978 33.24 100.158 33.7283 102.077 34.6732L102.96 32.8788C100.719 31.7757 98.1472 31.24 95.2705 31.24V33.24ZM102.082 34.6758C104.035 35.6227 105.499 36.9361 106.51 38.6127L108.223 37.5793C106.994 35.5439 105.226 33.9773 102.955 32.8762L102.082 34.6758ZM106.517 38.6234C107.561 40.3056 108.094 42.2473 108.094 44.48H110.094C110.094 41.9127 109.476 39.5984 108.216 37.5686L106.517 38.6234ZM108.094 44.48C108.094 46.7821 107.558 48.7546 106.517 50.4326L108.216 51.4874C109.479 49.4534 110.094 47.1059 110.094 44.48H108.094ZM106.514 50.4367C105.501 52.0865 104.05 53.387 102.125 54.3348L103.008 56.1292C105.243 55.029 106.992 53.4815 108.219 51.4833L106.514 50.4367ZM102.136 54.3294C100.216 55.2453 97.9361 55.72 95.2705 55.72V57.72C98.1729 57.72 100.757 57.2027 102.997 56.1346L102.136 54.3294ZM95.2705 52.056C97.4395 52.056 99.269 51.3898 100.643 49.9774L99.2098 48.5826C98.28 49.5382 97.0055 50.056 95.2705 50.056V52.056ZM100.652 49.9677C102.012 48.5324 102.654 46.6696 102.654 44.48H100.654C100.654 46.2584 100.145 47.5956 99.2005 48.5923L100.652 49.9677ZM102.654 44.48C102.654 42.2387 102.018 40.3578 100.634 38.9729L99.2194 40.3871C100.139 41.3062 100.654 42.6253 100.654 44.48H102.654ZM100.653 38.9928C99.3041 37.5668 97.4651 36.904 95.2705 36.904V38.904C97.0439 38.904 98.3089 39.4252 99.2 40.3672L100.653 38.9928ZM95.2705 36.904C93.0748 36.904 91.2272 37.567 89.8498 38.9826L91.2832 40.3774C92.2098 39.425 93.4981 38.904 95.2705 38.904V36.904ZM89.8594 38.9729C88.4745 40.3578 87.8385 42.2387 87.8385 44.48H89.8385C89.8385 42.6253 90.3545 41.3062 91.2736 40.3871L89.8594 38.9729ZM87.8385 44.48C87.8385 46.6696 88.4808 48.5324 89.8405 49.9677L91.2925 48.5923C90.3482 47.5956 89.8385 46.2584 89.8385 44.48H87.8385ZM89.8594 49.9871C91.262 51.3897 93.1008 52.056 95.2705 52.056V50.056C93.5362 50.056 92.239 49.5383 91.2736 48.5729L89.8594 49.9871ZM117.955 32.96V31.96H116.955V32.96H117.955ZM124.963 32.96H125.963V31.96H124.963V32.96ZM124.963 35.792H123.963V38.4156L125.71 36.4576L124.963 35.792ZM128.707 33.152L129.079 34.0805L129.089 34.0763L128.707 33.152ZM140.323 34.784L139.582 35.4553L139.589 35.4626L139.596 35.4698L140.323 34.784ZM142.675 56V57H143.675V56H142.675ZM135.427 56H134.427V57H135.427V56ZM127.891 38.816L128.37 39.6939L128.38 39.6884L128.39 39.6826L127.891 38.816ZM125.203 41.408L124.361 40.8696L124.203 41.1158V41.408H125.203ZM125.203 56V57H126.203V56H125.203ZM117.955 56H116.955V57H117.955V56ZM117.955 33.96H124.963V31.96H117.955V33.96ZM123.963 32.96V35.792H125.963V32.96H123.963ZM125.71 36.4576C126.665 35.3863 127.786 34.5977 129.079 34.0805L128.336 32.2235C126.749 32.8583 125.374 33.8297 124.217 35.1264L125.71 36.4576ZM129.089 34.0763C130.439 33.5185 131.846 33.24 133.315 33.24V31.24C131.585 31.24 129.919 31.5695 128.326 32.2277L129.089 34.0763ZM133.315 33.24C136.278 33.24 138.298 34.0375 139.582 35.4553L141.065 34.1127C139.277 32.1385 136.625 31.24 133.315 31.24V33.24ZM139.596 35.4698C140.948 36.9054 141.675 38.8933 141.675 41.552H143.675C143.675 38.5147 142.834 35.9906 141.051 34.0982L139.596 35.4698ZM141.675 41.552V56H143.675V41.552H141.675ZM142.675 55H135.427V57H142.675V55ZM136.427 56V42.368H134.427V56H136.427ZM136.427 42.368C136.427 40.7444 136.054 39.3404 135.13 38.3411C134.192 37.327 132.85 36.904 131.299 36.904V38.904C132.5 38.904 133.223 39.225 133.661 39.6989C134.113 40.1876 134.427 41.0156 134.427 42.368H136.427ZM131.299 36.904C129.908 36.904 128.6 37.2542 127.392 37.9494L128.39 39.6826C129.295 39.1618 130.259 38.904 131.299 38.904V36.904ZM127.413 37.9381C126.189 38.6053 125.175 39.5952 124.361 40.8696L126.046 41.9464C126.704 40.9168 127.481 40.1787 128.37 39.6939L127.413 37.9381ZM124.203 41.408V56H126.203V41.408H124.203ZM125.203 55H117.955V57H125.203V55ZM118.955 56V32.96H116.955V56H118.955ZM155.791 54.512L155.053 55.187L155.06 55.1952L155.068 55.2032L155.791 54.512ZM153.727 38.192H154.727V37.192H153.727V38.192ZM150.367 38.192H149.367V39.192H150.367V38.192ZM150.367 32.96V31.96H149.367V32.96H150.367ZM153.727 32.96V33.96H154.727V32.96H153.727ZM153.727 26.048V25.048H152.727V26.048H153.727ZM160.975 26.048H161.975V25.048H160.975V26.048ZM160.975 32.96H159.975V33.96H160.975V32.96ZM166.399 32.96H167.399V31.96H166.399V32.96ZM166.399 38.192V39.192H167.399V38.192H166.399ZM160.975 38.192V37.192H159.975V38.192H160.975ZM161.743 50.24L160.978 50.8841L160.986 50.8944L160.995 50.9044L161.743 50.24ZM167.503 50.336H168.503V48.6693L167.032 49.4536L167.503 50.336ZM167.503 55.76L167.901 56.6771L168.503 56.4156V55.76H167.503ZM161.935 55.72C159.428 55.72 157.678 55.0382 156.513 53.8208L155.068 55.2032C156.719 56.9298 159.065 57.72 161.935 57.72V55.72ZM156.528 53.837C155.367 52.5676 154.727 50.7559 154.727 48.272H152.727C152.727 51.1001 153.462 53.4484 155.053 55.187L156.528 53.837ZM154.727 48.272V38.192H152.727V48.272H154.727ZM153.727 37.192H150.367V39.192H153.727V37.192ZM151.367 38.192V32.96H149.367V38.192H151.367ZM150.367 33.96H153.727V31.96H150.367V33.96ZM154.727 32.96V26.048H152.727V32.96H154.727ZM153.727 27.048H160.975V25.048H153.727V27.048ZM159.975 26.048V32.96H161.975V26.048H159.975ZM160.975 33.96H166.399V31.96H160.975V33.96ZM165.399 32.96V38.192H167.399V32.96H165.399ZM166.399 37.192H160.975V39.192H166.399V37.192ZM159.975 38.192V47.312H161.975V38.192H159.975ZM159.975 47.312C159.975 48.7423 160.24 50.0075 160.978 50.8841L162.508 49.5959C162.222 49.2565 161.975 48.5697 161.975 47.312H159.975ZM160.995 50.9044C161.795 51.8041 163.072 52.104 164.479 52.104V50.104C163.261 50.104 162.714 49.8279 162.49 49.5756L160.995 50.9044ZM164.479 52.104C165.704 52.104 166.873 51.8052 167.973 51.2184L167.032 49.4536C166.212 49.8908 165.365 50.104 164.479 50.104V52.104ZM166.503 50.336V55.76H168.503V50.336H166.503ZM167.104 54.8429C165.797 55.4111 164.088 55.72 161.935 55.72V57.72C164.261 57.72 166.264 57.3889 167.901 56.6771L167.104 54.8429ZM176.626 54.608L175.993 55.382L176 55.3882L176.008 55.3943L176.626 54.608ZM176.53 42.8L177.169 43.5695L177.177 43.5623L176.53 42.8ZM187.666 41.072L187.441 42.0464L187.666 41.072ZM190.978 42.272L190.507 43.1544L191.978 43.9387V42.272H190.978ZM189.442 38.528L188.893 39.364L189.442 38.528ZM176.962 39.104H175.962V40.6449L177.369 40.0173L176.962 39.104ZM176.962 33.824L176.561 32.9078L175.962 33.17V33.824H176.962ZM180.946 32.72L181.12 33.7048L181.129 33.7031L181.138 33.7013L180.946 32.72ZM195.154 34.832L194.509 35.5963L194.516 35.6022L195.154 34.832ZM198.226 56V57H199.226V56H198.226ZM191.41 56H190.41V57H191.41V56ZM191.41 53.888H192.41V51.5296L190.715 53.1692L191.41 53.888ZM188.722 51.248L188.299 50.3418L188.722 51.248ZM190.978 49.376L191.805 49.9383L191.978 49.6838V49.376H190.978ZM190.978 47.072H191.978V46.5368L191.533 46.2399L190.978 47.072ZM182.482 46.304L183.093 47.0953L183.098 47.0915L182.482 46.304ZM182.482 51.104L183.093 50.3127L182.482 51.104ZM183.538 55.72C180.892 55.72 178.821 55.0612 177.244 53.8217L176.008 55.3943C178.015 56.9708 180.552 57.72 183.538 57.72V55.72ZM177.259 53.834C175.753 52.6014 174.986 50.9447 174.986 48.752H172.986C172.986 51.4873 173.979 53.7346 175.993 55.382L177.259 53.834ZM174.986 48.752C174.986 46.4359 175.74 44.7557 177.169 43.5694L175.891 42.0306C173.928 43.6603 172.986 45.9481 172.986 48.752H174.986ZM177.177 43.5623C178.632 42.3268 180.77 41.64 183.73 41.64V39.64C180.482 39.64 177.82 40.3932 175.883 42.0377L177.177 43.5623ZM183.73 41.64C185.036 41.64 186.272 41.7766 187.441 42.0464L187.891 40.0976C186.564 39.7914 185.176 39.64 183.73 39.64V41.64ZM187.441 42.0464C188.618 42.318 189.637 42.6902 190.507 43.1544L191.449 41.3896C190.399 40.8298 189.21 40.402 187.891 40.0976L187.441 42.0464ZM191.978 42.272V41.696H189.978V42.272H191.978ZM191.978 41.696C191.978 39.9877 191.349 38.5836 189.991 37.692L188.893 39.364C189.583 39.8164 189.978 40.5243 189.978 41.696H191.978ZM189.991 37.692C188.724 36.8605 186.92 36.52 184.738 36.52V38.52C186.78 38.52 188.112 38.8515 188.893 39.364L189.991 37.692ZM184.738 36.52C181.794 36.52 179.062 37.0728 176.555 38.1907L177.369 40.0173C179.598 39.0232 182.05 38.52 184.738 38.52V36.52ZM177.962 39.104V33.824H175.962V39.104H177.962ZM177.363 34.7402C178.288 34.3352 179.532 33.9849 181.12 33.7048L180.772 31.7352C179.096 32.0311 177.684 32.4168 176.561 32.9078L177.363 34.7402ZM181.138 33.7013C182.708 33.3935 184.276 33.24 185.842 33.24V31.24C184.144 31.24 182.448 31.4065 180.754 31.7387L181.138 33.7013ZM185.842 33.24C189.89 33.24 192.718 34.0849 194.509 35.5963L195.799 34.0677C193.494 32.1231 190.114 31.24 185.842 31.24V33.24ZM194.516 35.6022C196.298 37.0775 197.226 39.1582 197.226 41.984H199.226C199.226 38.6658 198.106 35.9785 195.792 34.0618L194.516 35.6022ZM197.226 41.984V56H199.226V41.984H197.226ZM198.226 55H191.41V57H198.226V55ZM192.41 56V53.888H190.41V56H192.41ZM190.715 53.1692C188.988 54.8397 186.633 55.72 183.538 55.72V57.72C187.035 57.72 189.928 56.7123 192.105 54.6068L190.715 53.1692ZM185.506 52.92C186.819 52.92 188.038 52.6709 189.145 52.1542L188.299 50.3418C187.486 50.7211 186.561 50.92 185.506 50.92V52.92ZM189.145 52.1542C190.252 51.6375 191.15 50.9012 191.805 49.9383L190.151 48.8137C189.718 49.4508 189.112 49.9625 188.299 50.3418L189.145 52.1542ZM191.978 49.376V47.072H189.978V49.376H191.978ZM191.533 46.2399C189.737 45.043 187.752 44.44 185.602 44.44V46.44C187.356 46.44 188.955 46.925 190.423 47.904L191.533 46.2399ZM185.602 44.44C184.13 44.44 182.84 44.7539 181.866 45.5165L183.098 47.0915C183.596 46.7021 184.386 46.44 185.602 46.44V44.44ZM181.871 45.5127C180.867 46.2885 180.426 47.431 180.426 48.752H182.426C182.426 47.897 182.689 47.4075 183.093 47.0953L181.871 45.5127ZM180.426 48.752C180.426 50.0327 180.882 51.1317 181.871 51.8953L183.093 50.3127C182.674 49.9883 182.426 49.5193 182.426 48.752H180.426ZM181.871 51.8953C182.816 52.6255 184.074 52.92 185.506 52.92V50.92C184.314 50.92 183.556 50.6705 183.093 50.3127L181.871 51.8953ZM209.623 53.552L208.966 54.3064L208.972 54.3113L209.623 53.552ZM209.623 35.504L210.279 36.2584L210.28 36.2578L209.623 35.504ZM228.631 34.352H229.631V33.7994L229.163 33.5054L228.631 34.352ZM228.631 40.064L228.047 40.876L229.631 42.0143V40.064H228.631ZM225.031 38.432L224.777 39.3994L224.783 39.4008L225.031 38.432ZM215.383 39.536L214.753 38.7588V38.7588L215.383 39.536ZM215.335 49.52L214.696 50.2898L214.706 50.2982L214.717 50.3063L215.335 49.52ZM228.919 48.848H229.919V47.0282L228.382 48.0039L228.919 48.848ZM228.919 54.512L229.447 55.3613L229.919 55.0678V54.512H228.919ZM219.559 55.72C215.568 55.72 212.51 54.7098 210.273 52.7927L208.972 54.3113C211.663 56.6182 215.229 57.72 219.559 57.72V55.72ZM210.279 52.7976C208.074 50.8791 206.927 48.1697 206.927 44.528H204.927C204.927 48.6303 206.243 51.9369 208.966 54.3064L210.279 52.7976ZM206.927 44.528C206.927 40.8863 208.074 38.1769 210.279 36.2584L208.966 34.7496C206.243 37.1191 204.927 40.4257 204.927 44.528H206.927ZM210.28 36.2578C212.551 34.2781 215.624 33.24 219.607 33.24V31.24C215.269 31.24 211.687 32.3779 208.965 34.7502L210.28 36.2578ZM219.607 33.24C223.271 33.24 226.072 33.925 228.098 35.1986L229.163 33.5054C226.709 31.963 223.494 31.24 219.607 31.24V33.24ZM227.631 34.352V40.064H229.631V34.352H227.631ZM229.214 39.252C228.077 38.4347 226.76 37.8422 225.278 37.4632L224.783 39.4008C226.053 39.7258 227.136 40.2213 228.047 40.876L229.214 39.252ZM225.284 37.4646C223.851 37.0893 222.341 36.904 220.759 36.904V38.904C222.184 38.904 223.522 39.0707 224.777 39.3994L225.284 37.4646ZM220.759 36.904C218.358 36.904 216.322 37.4887 214.753 38.7588L216.012 40.3132C217.131 39.4073 218.679 38.904 220.759 38.904V36.904ZM214.753 38.7588C213.109 40.0899 212.367 42.0826 212.367 44.528H214.367C214.367 42.4934 214.968 41.1581 216.012 40.3132L214.753 38.7588ZM212.367 44.528C212.367 46.9655 213.088 48.956 214.696 50.2898L215.973 48.7502C214.957 47.908 214.367 46.5705 214.367 44.528H212.367ZM214.717 50.3063C216.285 51.5385 218.316 52.104 220.711 52.104V50.104C218.625 50.104 217.072 49.6135 215.952 48.7337L214.717 50.3063ZM220.711 52.104C223.984 52.104 226.91 51.3086 229.455 49.6921L228.382 48.0039C226.192 49.3954 223.646 50.104 220.711 50.104V52.104ZM227.919 48.848V54.512H229.919V48.848H227.919ZM228.391 53.6627C226.231 55.005 223.314 55.72 219.559 55.72V57.72C223.548 57.72 226.87 56.963 229.447 55.3613L228.391 53.6627ZM241.253 54.512L240.515 55.187L240.523 55.1952L240.53 55.2032L241.253 54.512ZM239.189 38.192H240.189V37.192H239.189V38.192ZM235.829 38.192H234.829V39.192H235.829V38.192ZM235.829 32.96V31.96H234.829V32.96H235.829ZM239.189 32.96V33.96H240.189V32.96H239.189ZM239.189 26.048V25.048H238.189V26.048H239.189ZM246.437 26.048H247.437V25.048H246.437V26.048ZM246.437 32.96H245.437V33.96H246.437V32.96ZM251.861 32.96H252.861V31.96H251.861V32.96ZM251.861 38.192V39.192H252.861V38.192H251.861ZM246.437 38.192V37.192H245.437V38.192H246.437ZM247.205 50.24L246.44 50.8841L246.449 50.8944L246.458 50.9044L247.205 50.24ZM252.965 50.336H253.965V48.6693L252.495 49.4536L252.965 50.336ZM252.965 55.76L253.364 56.6771L253.965 56.4156V55.76H252.965ZM247.397 55.72C244.891 55.72 243.14 55.0382 241.976 53.8208L240.53 55.2032C242.182 56.9298 244.527 57.72 247.397 57.72V55.72ZM241.991 53.837C240.83 52.5676 240.189 50.7559 240.189 48.272H238.189C238.189 51.1001 238.925 53.4484 240.515 55.187L241.991 53.837ZM240.189 48.272V38.192H238.189V48.272H240.189ZM239.189 37.192H235.829V39.192H239.189V37.192ZM236.829 38.192V32.96H234.829V38.192H236.829ZM235.829 33.96H239.189V31.96H235.829V33.96ZM240.189 32.96V26.048H238.189V32.96H240.189ZM239.189 27.048H246.437V25.048H239.189V27.048ZM245.437 26.048V32.96H247.437V26.048H245.437ZM246.437 33.96H251.861V31.96H246.437V33.96ZM250.861 32.96V38.192H252.861V32.96H250.861ZM251.861 37.192H246.437V39.192H251.861V37.192ZM245.437 38.192V47.312H247.437V38.192H245.437ZM245.437 47.312C245.437 48.7423 245.702 50.0075 246.44 50.8841L247.97 49.5959C247.684 49.2565 247.437 48.5697 247.437 47.312H245.437ZM246.458 50.9044C247.257 51.8041 248.535 52.104 249.941 52.104V50.104C248.723 50.104 248.177 49.8279 247.953 49.5756L246.458 50.9044ZM249.941 52.104C251.166 52.104 252.335 51.8052 253.436 51.2184L252.495 49.4536C251.675 49.8908 250.828 50.104 249.941 50.104V52.104ZM251.965 50.336V55.76H253.965V50.336H251.965ZM252.566 54.8429C251.26 55.4111 249.551 55.72 247.397 55.72V57.72C249.724 57.72 251.727 57.3889 253.364 56.6771L252.566 54.8429ZM264.062 56.144L264.252 55.1621L264.24 55.1599L264.062 56.144ZM259.454 54.608H258.454V55.1742L258.94 55.4655L259.454 54.608ZM259.454 48.944L259.969 48.0865L258.454 47.1778V48.944H259.454ZM264.062 50.816L263.803 51.7819L264.062 50.816ZM271.934 51.2L272.28 52.1383L271.934 51.2ZM272.318 48.8L271.645 49.5399L271.665 49.5575L271.685 49.574L272.318 48.8ZM270.686 47.984L270.344 48.9238L270.369 48.9329L270.395 48.9407L270.686 47.984ZM267.134 46.88L266.851 47.8391L266.857 47.8408L267.134 46.88ZM262.526 45.152L262.038 46.0249L262.053 46.0334L262.069 46.0413L262.526 45.152ZM260.03 42.896L259.175 43.415L259.182 43.426L259.189 43.4368L260.03 42.896ZM262.046 34.064L262.577 34.9112L262.581 34.9088L262.046 34.064ZM274.766 32.768L274.563 33.7471L274.573 33.7493L274.584 33.7513L274.766 32.768ZM278.75 34.064H279.75V33.4911L279.256 33.2013L278.75 34.064ZM278.75 39.584L278.202 40.4205L279.75 41.4347V39.584H278.75ZM275.102 38.096L274.85 39.0636L274.855 39.0649L275.102 38.096ZM267.71 37.904L267.382 36.9594L267.368 36.9642L267.71 37.904ZM267.662 40.736L267.232 41.6389L267.24 41.6427L267.248 41.6464L267.662 40.736ZM271.55 41.936L271.304 42.9052L271.308 42.9061L271.55 41.936ZM272.51 42.176L272.771 41.2105L272.762 41.2081L272.753 41.2059L272.51 42.176ZM277.214 44L276.7 44.8575L276.709 44.863L276.718 44.8682L277.214 44ZM279.566 46.352L278.666 46.7867L278.675 46.8057L278.685 46.8242L279.566 46.352ZM277.55 54.848L278.115 55.6734L278.125 55.6666L277.55 54.848ZM269.63 55.72C267.976 55.72 266.184 55.5361 264.252 55.1622L263.872 57.1258C265.908 57.5199 267.829 57.72 269.63 57.72V55.72ZM264.24 55.1599C262.351 54.8194 260.946 54.3367 259.969 53.7505L258.94 55.4655C260.203 56.2233 261.869 56.7646 263.885 57.1281L264.24 55.1599ZM260.454 54.608V48.944H258.454V54.608H260.454ZM258.94 49.8015C260.316 50.6273 261.942 51.2834 263.803 51.7819L264.321 49.8501C262.598 49.3886 261.152 48.7967 259.969 48.0865L258.94 49.8015ZM263.803 51.7819C265.663 52.28 267.415 52.536 269.054 52.536V50.536C267.621 50.536 266.045 50.312 264.321 49.8501L263.803 51.7819ZM269.054 52.536C270.389 52.536 271.497 52.4266 272.28 52.1383L271.588 50.2617C271.155 50.4214 270.344 50.536 269.054 50.536V52.536ZM272.28 52.1383C272.721 51.9758 273.131 51.7136 273.426 51.31C273.724 50.9015 273.846 50.4288 273.846 49.952H271.846C271.846 50.0832 271.816 50.1225 271.811 50.13C271.802 50.1424 271.755 50.2002 271.588 50.2617L272.28 52.1383ZM273.846 49.952C273.846 49.1912 273.55 48.5157 272.951 48.026L271.685 49.574C271.79 49.6603 271.846 49.7528 271.846 49.952H273.846ZM272.991 48.0601C272.482 47.5975 271.778 47.2709 270.977 47.0273L270.395 48.9407C271.067 49.1451 271.45 49.3625 271.645 49.5399L272.991 48.0601ZM271.028 47.0442C270.289 46.7755 269.076 46.3995 267.411 45.9192L266.857 47.8408C268.52 48.3205 269.675 48.6805 270.344 48.9238L271.028 47.0442ZM267.417 45.9209C265.493 45.3532 264.024 44.798 262.983 44.2627L262.069 46.0413C263.268 46.658 264.871 47.2548 266.851 47.8391L267.417 45.9209ZM263.014 44.2791C262.045 43.7375 261.345 43.0914 260.871 42.3552L259.189 43.4368C259.868 44.4926 260.831 45.3505 262.038 46.0249L263.014 44.2791ZM260.885 42.377C260.463 41.6824 260.214 40.7258 260.214 39.44H258.214C258.214 40.9702 258.509 42.3176 259.175 43.415L260.885 42.377ZM260.214 39.44C260.214 37.3524 261.007 35.896 262.577 34.9112L261.515 33.2168C259.309 34.6 258.214 36.7276 258.214 39.44H260.214ZM262.581 34.9088C264.286 33.8293 266.669 33.24 269.822 33.24V31.24C266.447 31.24 263.647 31.8667 261.511 33.2192L262.581 34.9088ZM269.822 33.24C271.349 33.24 272.928 33.4079 274.563 33.7471L274.969 31.7889C273.212 31.4241 271.496 31.24 269.822 31.24V33.24ZM274.584 33.7513C276.261 34.0618 277.46 34.4667 278.244 34.9267L279.256 33.2013C278.184 32.5733 276.727 32.1142 274.948 31.7847L274.584 33.7513ZM277.75 34.064V39.584H279.75V34.064H277.75ZM279.298 38.7475C278.249 38.0603 276.921 37.5283 275.35 37.1271L274.855 39.0649C276.291 39.4317 277.395 39.8917 278.202 40.4205L279.298 38.7475ZM275.355 37.1284C273.807 36.7246 272.282 36.52 270.782 36.52V38.52C272.098 38.52 273.454 38.6994 274.85 39.0636L275.355 37.1284ZM270.782 36.52C269.424 36.52 268.271 36.6501 267.382 36.9595L268.039 38.8485C268.621 38.6459 269.516 38.52 270.782 38.52V36.52ZM267.368 36.9642C266.878 37.1423 266.432 37.4283 266.112 37.8646C265.788 38.3058 265.654 38.8193 265.654 39.344H267.654C267.654 39.1646 267.696 39.0861 267.725 39.0474C267.757 39.0037 267.838 38.9217 268.052 38.8438L267.368 36.9642ZM265.654 39.344C265.654 39.8449 265.797 40.3211 266.096 40.7345C266.387 41.1367 266.789 41.4278 267.232 41.6389L268.092 39.8331C267.863 39.7242 267.761 39.6233 267.716 39.5615C267.679 39.5109 267.654 39.4511 267.654 39.344H265.654ZM267.248 41.6464C268.043 42.0076 269.419 42.426 271.304 42.9052L271.797 40.9668C269.905 40.486 268.689 40.1044 268.076 39.8256L267.248 41.6464ZM271.308 42.9061L272.268 43.1461L272.753 41.2059L271.793 40.9659L271.308 42.9061ZM272.25 43.1415C274.223 43.6739 275.692 44.2527 276.7 44.8575L277.729 43.1425C276.497 42.4033 274.829 41.7661 272.771 41.2105L272.25 43.1415ZM276.718 44.8682C277.707 45.4333 278.325 46.082 278.666 46.7867L280.467 45.9173C279.911 44.766 278.961 43.8467 277.71 43.1318L276.718 44.8682ZM278.685 46.8242C279.064 47.5327 279.286 48.4931 279.286 49.76H281.286C281.286 48.2749 281.028 46.9633 280.448 45.8798L278.685 46.8242ZM279.286 49.76C279.286 51.5254 278.55 52.9245 276.976 54.0294L278.125 55.6666C280.198 54.2115 281.286 52.2186 281.286 49.76H279.286ZM276.985 54.0227C275.397 55.1093 272.99 55.72 269.63 55.72V57.72C273.183 57.72 276.055 57.0827 278.115 55.6733L276.985 54.0227Z" fill="#385981" fill-opacity="0.42"/>
</g>
<path d="M0 1L328 1V-1L0 -1L0 1ZM328 79L0 79L0 81L328 81V79Z" fill="#A6B5CA" mask="url(#path-1-inside-1_447_3048)"/>
<defs>
<clipPath id="clip0_447_3048">
<path d="M0 80L0 0L328 0V80L0 80Z" fill="white"/>
</clipPath>
</defs>
</svg>
